<svg width="84" height="49" viewBox="0 0 84 49" fill="none" xmlns="http://www.w3.org/2000/svg">
<path d="M18.8451 23.9765L19.2264 25.0385L20.0226 24.7526L19.9714 23.9082L18.8451 23.9765ZM2.30473 36.5071L3.29532 35.9667L3.29532 35.9667L2.30473 36.5071ZM36.3886 2.42391L36.198 1.31176L36.1456 1.32074L36.0943 1.33462L36.3886 2.42391ZM61.951 12.9496L60.9803 13.5248L61.3674 14.1781L62.1184 14.0654L61.951 12.9496ZM82 14.9545L82.8757 15.666L83.1284 15.3551V14.9545H82ZM52.929 29.9912L53.2054 31.0852L53.235 31.0777L53.2642 31.0686L52.929 29.9912ZM24.8605 40.0157L24.7359 38.8942L22.4025 39.1535L24.0626 40.8135L24.8605 40.0157ZM63.9559 29.49L65.0676 29.6833L65.4449 27.5141L63.4637 28.4746L63.9559 29.49ZM47.9168 46.5316L47.6431 45.4369L47.6431 45.4369L47.9168 46.5316ZM18.8449 25.9814L19.9711 25.911L19.8748 24.3702L18.4359 24.9298L18.8449 25.9814ZM21.351 34.5022L21.4691 35.6244L21.6247 33.4075L21.351 34.5022ZM64.9598 23.4754L63.8402 23.3354L63.5787 25.4275L65.4645 24.4846L64.9598 23.4754ZM62.9549 14.9546L62.7876 13.8387L61.1783 14.0801L61.9686 15.5026L62.9549 14.9546ZM71.977 16.9595L70.892 16.6495L70.892 16.6495L71.977 16.9595ZM18.4639 22.9145C15.1649 24.0987 10.344 26.1613 6.62638 28.5111C4.77936 29.6785 3.11556 30.9715 2.06593 32.3262C1.01467 33.683 0.399973 35.3714 1.31414 37.0474L3.29532 35.9667C3.00655 35.4373 3.04344 34.7492 3.84984 33.7084C4.65787 32.6656 6.0578 31.5402 7.83213 30.4187C11.3572 28.1906 16.0095 26.1933 19.2264 25.0385L18.4639 22.9145ZM36.0943 1.33462C32.8563 2.20966 28.0934 4.36978 24.2207 8.04625C20.3232 11.7463 17.293 17.0241 17.7188 24.0448L19.9714 23.9082C19.5947 17.6965 22.2452 13.0334 25.7745 9.68293C29.3286 6.30887 33.7388 4.30888 36.683 3.5132L36.0943 1.33462ZM62.9218 12.3743C60.079 7.57674 50.8136 -1.19367 36.198 1.31176L36.5793 3.53606C50.0333 1.22974 58.4772 9.30038 60.9803 13.5248L62.9218 12.3743ZM83.1284 14.9545C83.1284 14.0538 82.5899 13.2679 81.7852 12.6845C80.9789 12.1 79.8028 11.6306 78.2085 11.3162C75.0166 10.6867 69.8566 10.6227 61.7837 11.8337L62.1184 14.0654C70.0846 12.8705 74.9491 12.9736 77.7719 13.5303C79.185 13.809 80.0137 14.1876 80.4605 14.5116C80.9088 14.8366 80.8716 15.0197 80.8716 14.9545H83.1284ZM53.2642 31.0686C57.0636 29.8866 63.0776 27.7135 68.8086 25.023C71.6747 23.6774 74.4878 22.1943 76.9249 20.6315C79.3494 19.0768 81.4627 17.4051 82.8757 15.666L81.1243 14.2429C79.9309 15.7117 78.047 17.2311 75.7067 18.7318C73.3791 20.2243 70.6599 21.6608 67.8496 22.9801C62.2279 25.6193 56.3128 27.7567 52.5938 28.9137L53.2642 31.0686ZM1.31414 37.0474C1.60865 37.5873 2.08465 37.9554 2.58175 38.2095C3.08052 38.4645 3.66947 38.6408 4.30214 38.7651C5.56649 39.0136 7.18431 39.0879 9.02603 39.0416C12.7218 38.9489 17.5462 38.3627 22.7473 37.5207C33.1622 35.8345 45.251 33.0947 53.2054 31.0852L52.6526 28.8972C44.7347 30.8975 32.7143 33.6209 22.3866 35.293C17.2165 36.13 12.5112 36.6967 8.96939 36.7856C7.19233 36.8302 5.7644 36.7526 4.73732 36.5507C4.22428 36.4499 3.85609 36.3264 3.60897 36.2001C3.36019 36.0729 3.30155 35.9782 3.29532 35.9667L1.31414 37.0474ZM24.9851 41.1371C32.5535 40.2962 51.0463 37.0032 64.4482 30.5053L63.4637 28.4746C50.401 34.8081 32.2042 38.0644 24.7359 38.8942L24.9851 41.1371ZM47.6431 45.4369C41.9314 46.8648 32.3405 45.8999 25.6584 39.2178L24.0626 40.8135C31.4148 48.1657 41.8728 49.2057 48.1905 47.6263L47.6431 45.4369ZM62.8443 29.2966C62.2098 32.9449 58.8526 42.6345 47.6431 45.4369L48.1905 47.6263C60.6633 44.508 64.3655 33.7204 65.0676 29.6833L62.8443 29.2966ZM17.7187 26.0518C17.8047 27.427 18.0362 29.523 18.46 31.349C18.6705 32.2562 18.9409 33.1526 19.2922 33.8724C19.4682 34.233 19.6835 34.5893 19.9524 34.887C20.2206 35.1839 20.5908 35.4752 21.0773 35.5969L21.6247 33.4075C21.7103 33.4289 21.7066 33.4624 21.627 33.3742C21.548 33.2868 21.4415 33.131 21.3203 32.8827C21.0775 32.385 20.8529 31.6775 20.6583 30.8388C20.2717 29.1729 20.0522 27.209 19.9711 25.911L17.7187 26.0518ZM11.8958 32.1405C11.8663 32.0521 11.8362 31.8119 12.2163 31.3103C12.5888 30.8191 13.22 30.2701 14.0434 29.7073C15.677 28.5905 17.7971 27.5996 19.2539 27.0331L18.4359 24.9298C16.8853 25.5328 14.5946 26.5968 12.7698 27.8442C11.864 28.4634 11.0041 29.1738 10.4179 29.947C9.83952 30.7101 9.38332 31.7396 9.75485 32.8541L11.8958 32.1405ZM21.2329 33.38C19.6968 33.5417 17.3529 33.6362 15.3257 33.4061C14.3071 33.2905 13.4345 33.0998 12.7997 32.8326C12.1387 32.5543 11.9439 32.2848 11.8958 32.1405L9.75485 32.8541C10.1077 33.9127 11.0323 34.5371 11.9241 34.9125C12.8421 35.299 13.9555 35.5218 15.0712 35.6484C17.3128 35.9029 19.8308 35.7968 21.4691 35.6244L21.2329 33.38ZM66.0795 23.6154C66.3067 21.7977 65.9729 19.8761 65.5047 18.2617C65.0338 16.6376 64.3994 15.2311 63.9413 14.4066L61.9686 15.5026C62.3459 16.1818 62.9144 17.4317 63.3373 18.8902C63.763 20.3583 64.0139 21.9453 63.8402 23.3354L66.0795 23.6154ZM70.892 16.6495C70.5906 17.7046 69.5721 18.8978 68.2033 20.0222C66.8751 21.1132 65.3948 21.9964 64.4552 22.4662L65.4645 24.4846C66.5298 23.952 68.1571 22.9806 69.6357 21.766C71.0738 20.5848 72.5614 19.0213 73.0619 17.2695L70.892 16.6495ZM63.1223 16.0705C64.7502 15.8263 67.0971 15.6404 68.8965 15.8381C69.8213 15.9398 70.44 16.1276 70.7569 16.3353C70.8261 16.3807 70.8664 16.418 70.8883 16.4424C70.909 16.4655 70.9134 16.477 70.9135 16.4773C70.9138 16.4781 70.9143 16.4791 70.9147 16.4814C70.9152 16.4837 70.9163 16.4897 70.9166 16.5004C70.9172 16.5216 70.9149 16.5693 70.892 16.6495L73.0619 17.2695C73.219 16.7197 73.2203 16.1513 72.9997 15.6166C72.7836 15.0928 72.4016 14.7151 71.9941 14.4479C71.2167 13.9383 70.1563 13.7063 69.143 13.5949C67.0662 13.3666 64.5011 13.5817 62.7876 13.8387L63.1223 16.0705Z" fill="white"/>
</svg>
